<svg xmlns="http://www.w3.org/2000/svg">
  <defs>
    <symbol id="menu">
      <line x1="4" x2="20" y1="12" y2="12" /><line x1="4" x2="20" y1="6" y2="6" /><line x1="4" x2="20" y1="18" y2="18" />
    </symbol>
    <symbol id="inbox">
      <polyline points="22 12 16 12 14 15 10 15 8 12 2 12" /><path d="M5.45 5.11 2 12v6a2 2 0 0 0 2 2h16a2 2 0 0 0 2-2v-6l-3.45-6.89A2 2 0 0 0 16.76 4H7.24a2 2 0 0 0-1.79 1.11z" />
    </symbol>
    <symbol id="user-circle2">
      <path d="M18 20a6 6 0 0 0-12 0" /><circle cx="12" cy="10" r="4" /><circle cx="12" cy="12" r="10" />
    </symbol>
    <symbol id="package2">
      <path d="M3 9h18v10a2 2 0 0 1-2 2H5a2 2 0 0 1-2-2V9Z" /><path d="m3 9 2.45-4.9A2 2 0 0 1 7.24 3h9.52a2 2 0 0 1 1.8 1.1L21 9" /><path d="M12 3v6" />
    </symbol>
    <symbol id="log-in">
      <path d="M15 3h4a2 2 0 0 1 2 2v14a2 2 0 0 1-2 2h-4" /><polyline points="10 17 15 12 10 7" /><line x1="15" x2="3" y1="12" y2="12" />
    </symbol>
    <symbol id="log-out">
      <path d="M9 21H5a2 2 0 0 1-2-2V5a2 2 0 0 1 2-2h4" /><polyline points="16 17 21 12 16 7" /><line x1="21" x2="9" y1="12" y2="12" />
    </symbol>
    <symbol id="home">
      <path d="m3 9 9-7 9 7v11a2 2 0 0 1-2 2H5a2 2 0 0 1-2-2z" /><polyline points="9 22 9 12 15 12 15 22" />
    </symbol>
    <symbol id="wrench">
      <path d="M14.7 6.3a1 1 0 0 0 0 1.4l1.6 1.6a1 1 0 0 0 1.4 0l3.77-3.77a6 6 0 0 1-7.94 7.94l-6.91 6.91a2.12 2.12 0 0 1-3-3l6.91-6.91a6 6 0 0 1 7.94-7.94l-3.76 3.76z" />
    </symbol>
    <symbol id="shopping-cart">
      <circle cx="8" cy="21" r="1" /><circle cx="19" cy="21" r="1" /><path d="M2.05 2.05h2l2.66 12.42a2 2 0 0 0 2 1.58h9.78a2 2 0 0 0 1.95-1.57l1.65-7.43H5.12" />
    </symbol>
    <symbol id="trash2">
      <path d="M3 6h18" /><path d="M19 6v14c0 1-1 2-2 2H7c-1 0-2-1-2-2V6" /><path d="M8 6V4c0-1 1-2 2-2h4c1 0 2 1 2 2v2" /><line x1="10" x2="10" y1="11" y2="17" /><line x1="14" x2="14" y1="11" y2="17" />
    </symbol>
    <symbol id="loader-circle">
      <path d="M21 12a9 9 0 1 1-6.219-8.56" />
    </symbol>
    <symbol id="x">
      <path d="M18 6 6 18" /><path d="m6 6 12 12" />
    </symbol>
    <symbol id="check">
      <path d="M20 6 9 17l-5-5" />
    </symbol>
  </defs>
</svg>